<svg xmlns="http://www.w3.org/2000/svg" viewBox="0 0 841.9 595.3">
    <g fill="#61DAFB">
        <path d="M666.3 296.5c0-32.5-40.7-63.3-103.1-82.4 14.4-63.6 8-114.2-20.2-130.4-6.5-3.8-14.1-5.6-22.4-5.6v22.3c4.6 0 8.3.9 11.4 2.6 13.6 7.8 19.5 37.5 14.9 75.7-1.1 9.4-2.9 19.3-5.1 29.4-19.6-4.8-41-8.5-63.5-10.9-13.5-18.5-27.5-35.3-41.6-50 32.6-30.3 63.2-46.9 84-46.9V78c-27.5 0-63.5 19.6-99.9 53.6-36.4-33.8-72.4-53.2-99.9-53.2v22.3c20.7 0 51.4 16.5 84 46.6-14 14.7-28 31.4-41.3 49.9-22.6 2.4-44 6.1-63.6 11-2.3-10-4-19.7-5.2-29-4.7-38.2 1.1-67.9 14.6-75.8 3-1.8 6.9-2.6 11.5-2.6V78.5c-8.4 0-16 1.8-22.6 5.6-28.1 16.2-34.4 66.7-19.9 130.1-62.2 19.2-102.7 49.9-102.7 82.3 0 32.5 40.7 63.3 103.1 82.4-14.4 63.6-8 114.2 20.2 130.4 6.5 3.8 14.1 5.6 22.5 5.6 27.5 0 63.5-19.6 99.9-53.6 36.4 33.8 72.4 53.2 99.9 53.2 8.4 0 16-1.8 22.6-5.6 28.1-16.2 34.4-66.7 19.9-130.1 62-19.1 102.5-49.9 102.5-82.3zm-130.2-66.7c-3.7 12.9-8.3 26.2-13.5 39.5-4.1-8-8.4-16-13.1-24-4.6-8-9.5-15.8-14.4-23.4 14.2 2.1 27.9 4.7 41 7.9zm-45.8 106.5c-7.8 13.5-15.8 26.3-24.1 38.2-14.9 1.3-30 2-45.2 2-15.1 0-30.2-.7-45-1.9-8.3-11.9-16.4-24.6-24.2-38-7.6-13.1-14.5-26.4-20.8-39.8 6.2-13.4 13.2-26.8 20.7-39.9 7.8-13.5 15.8-26.3 24.1-38.2 14.9-1.3 30-2 45.2-2 15.1 0 30.2.7 45 1.9 8.3 11.9 16.4 24.6 24.2 38 7.6 13.1 14.5 26.4 20.8 39.8-6.3 13.4-13.2 26.8-20.7 39.9zm-49.7 52.2c-16.1-1.6-31.9-1.6-47.9 0-10.8-14.4-20.9-29.4-30.4-45.2 9.5-15.8 19.7-30.8 30.4-45.2 16.1 1.6 31.9 1.6 47.9 0 10.8 14.4 20.9 29.4 30.4 45.2-9.5 15.8-19.7 30.8-30.4 45.2zM421.2 430c-9.3-9.6-18.6-20.3-27.8-32 3.2-13.9 6-28.2 8.2-42.7-4.4-1.2-8.8-2.5-13.4-3.8-10.2 24.6-21.7 47.7-34.2 69-6.2-1.2-12.5-2.3-18.9-3.4-1.2-4.9-2.3-9.9-3.4-14.9-2.6-12-5.1-24.1-7.5-36.1-2.4-12-4.8-24-7.1-35.9-1.2-4.9-2.3-9.9-3.4-14.9-6.4 1.1-12.7 2.2-19 3.4-12.5-21.3-24-44.4-34.2-69-4.5 1.3-9 2.6-13.4 3.8 2.2 14.5 5 28.8 8.2 42.7-9.2 11.7-18.5 22.4-27.8 32-12.9-15.4-24.4-31.8-34.6-49.1-1.3 2.6-2.5 5.2-3.8 7.9-1.3 2.6-2.5 5.2-3.8 7.8-11.3-16.6-21.6-34-31.1-52.2-1.3 2.6-2.5 5.2-3.8 7.8-1.3 2.6-2.5 5.2-3.8 7.9 11.1 18.1 22.2 35.3 33.3 51.5-10.2 17-19.1 34.6-26.9 52.8-1.9-3.2-3.7-6.5-5.5-9.8-1.9-3.2-3.7-6.5-5.5-9.8-12.1 19.2-22.5 39.5-31.4 60.5-1.9-3.2-3.7-6.5-5.5-9.8-1.9-3.2-3.7-6.5-5.5-9.8 11.7 20.3 23.4 39.7 35.1 58.2 9.9 16.4 20.2 32.1 30.9 47 1.9-3.2 3.7-6.5 5.5-9.8 1.9-3.2 3.7-6.5-5.5-9.8 12.1-19.2 22.5-39.5 31.4-60.5 1.9-3.2 3.7-6.5 5.5-9.8 1.9-3.2-3.7-6.5-5.5-9.8-11.7-20.3-23.4-39.7-35.1-58.2-9.9-16.4-20.2-32.1-30.9-47-2.6 1.9-5.2 3.7-7.9 5.5-2.6 1.9-5.2 3.7-7.9 5.5 16.2 24.4 33.4 47.2 51.5 68.2 17.6 20.5 36.4 39.4 56.2 56.5 2.6-1.9 5.2-3.7 7.9-5.5 2.6-1.9 5.2-3.7-7.9-5.5-16.2-24.4-33.4-47.2-51.5-68.2-17.6-20.5-36.4-39.4-56.2-56.5-3.5 2.5-7 4.9-10.6 7.4-3.5 2.5-7 4.9-10.6 7.4 21.6 30.1 44.8 56.4 69.4 78.9 23.9 21.9 49.3 39.9 75.8 54.2 3.5-2.5 7-4.9 10.6-7.4 3.5-2.5 7-4.9 10.6-7.4-21.6-30.1-44.8-56.4-69.4-78.9-23.9-21.9-49.3-39.9-75.8-54.2-3.2 2.3-6.4 4.5-9.7 6.7-3.2 2.3-6.4 4.5-9.7 6.7 20.3 28.5 42.1 53.2 65.2 74.3 22.4 20.5 46.1 37.2 70.8 50.2 3.2-2.3 6.4-4.5 9.7-6.7 3.2-2.3 6.4-4.5-9.7-6.7-20.3-28.5-42.1-53.2-65.2-74.3-22.4-20.5-46.1-37.2-70.8-50.2z"/>
        <ellipse transform="rotate(30)" cx="421.2" cy="296.5" rx="53.8" ry="144.3"/>
        <ellipse transform="rotate(90)" cx="421.2" cy="296.5" rx="53.8" ry="144.3"/>
        <ellipse transform="rotate(150)" cx="421.2" cy="296.5" rx="53.8" ry="144.3"/>
    </g>
</svg>